M48
; DRILL file {KiCad 9.0.3} date 2025-08-10T15:32:37+0900
; FORMAT={-:-/ absolute / metric / decimal}
; #@! TF.CreationDate,2025-08-10T15:32:37+09:00
; #@! TF.GenerationSoftware,Kicad,Pcbnew,9.0.3
; #@! TF.FileFunction,Plated,1,2,PTH
FMAT,2
METRIC
; #@! TA.AperFunction,Plated,PTH,ViaDrill
T1C0.300
; #@! TA.AperFunction,Plated,PTH,ComponentDrill
T2C0.750
; #@! TA.AperFunction,Plated,PTH,ComponentDrill
T3C0.762
; #@! TA.AperFunction,Plated,PTH,ComponentDrill
T4C0.800
%
G90
G05
T1
X1.0Y-1.0
X1.0Y-2.0
X1.0Y-6.0
X2.0Y-1.0
X3.5Y-8.5
X5.0Y-6.0
X5.0Y-29.0
X5.08Y-15.24
X5.08Y-20.32
X5.08Y-25.4
X5.08Y-35.56
X5.08Y-40.64
X5.08Y-45.72
X5.08Y-50.8
X5.08Y-55.88
X7.0Y-6.0
X8.0Y-5.0
X8.0Y-6.0
X9.0Y-5.0
X10.0Y-24.0
X10.16Y-10.16
X10.16Y-15.24
X10.16Y-20.32
X10.16Y-30.48
X10.16Y-35.56
X10.16Y-40.64
X10.16Y-45.72
X10.16Y-50.8
X10.16Y-55.88
X12.0Y-5.5
X13.5Y-5.5
X14.5Y-10.0
X14.5Y-15.5
X15.0Y-5.5
X15.0Y-19.0
X15.24Y-25.4
X15.24Y-30.48
X15.24Y-35.56
X15.24Y-40.64
X15.24Y-45.72
X15.24Y-50.8
X15.24Y-55.88
X17.0Y-5.5
X17.0Y-9.0
X17.0Y-12.5
X17.0Y-15.5
X20.32Y-25.4
X20.32Y-30.48
X20.32Y-35.56
X20.32Y-40.64
X20.32Y-45.72
X20.32Y-50.8
X20.32Y-55.88
X20.5Y-5.5
X20.5Y-9.0
X20.5Y-12.5
X21.0Y-1.0
X23.0Y-1.0
X23.0Y-3.0
X23.0Y-15.0
X23.0Y-17.0
X23.0Y-19.0
X25.0Y-1.0
X25.0Y-3.0
X25.4Y-55.88
T2
X9.79Y-2.63
X11.79Y-2.63
X13.79Y-2.63
X15.79Y-2.63
X17.79Y-2.63
T3
X1.6Y-16.86
X1.6Y-19.4
X1.6Y-21.94
X1.6Y-24.48
X1.6Y-27.02
X1.6Y-29.56
X1.6Y-32.1
X1.6Y-34.64
X1.6Y-37.18
X1.6Y-39.72
X1.6Y-42.26
X1.6Y-44.8
X1.6Y-47.34
X24.46Y-16.86
X24.46Y-19.4
X24.46Y-21.94
X24.46Y-24.48
X24.46Y-27.02
X24.46Y-29.56
X24.46Y-32.1
X24.46Y-34.64
X24.46Y-37.18
X24.46Y-39.72
X24.46Y-42.26
X24.46Y-44.8
X24.46Y-47.34
T4
X1.24Y-3.95
X1.29Y-7.46
X3.78Y-3.95
X6.32Y-3.95
X11.45Y-7.46
X13.55Y-7.46
X23.71Y-7.46
M30
