%TF.GenerationSoftware,KiCad,Pcbnew,9.0.3*%
%TF.CreationDate,2025-08-10T15:32:26+09:00*%
%TF.ProjectId,Cuicuit,43756963-7569-4742-9e6b-696361645f70,rev?*%
%TF.SameCoordinates,PX7b89fa0PY65bcec0*%
%TF.FileFunction,Copper,L1,Top*%
%TF.FilePolarity,Positive*%
%FSLAX46Y46*%
G04 Gerber Fmt 4.6, Leading zero omitted, Abs format (unit mm)*
G04 Created by KiCad (PCBNEW 9.0.3) date 2025-08-10 15:32:26*
%MOMM*%
%LPD*%
G01*
G04 APERTURE LIST*
G04 Aperture macros list*
%AMRoundRect*
0 Rectangle with rounded corners*
0 $1 Rounding radius*
0 $2 $3 $4 $5 $6 $7 $8 $9 X,Y pos of 4 corners*
0 Add a 4 corners polygon primitive as box body*
4,1,4,$2,$3,$4,$5,$6,$7,$8,$9,$2,$3,0*
0 Add four circle primitives for the rounded corners*
1,1,$1+$1,$2,$3*
1,1,$1+$1,$4,$5*
1,1,$1+$1,$6,$7*
1,1,$1+$1,$8,$9*
0 Add four rect primitives between the rounded corners*
20,1,$1+$1,$2,$3,$4,$5,0*
20,1,$1+$1,$4,$5,$6,$7,0*
20,1,$1+$1,$6,$7,$8,$9,0*
20,1,$1+$1,$8,$9,$2,$3,0*%
G04 Aperture macros list end*
%TA.AperFunction,ComponentPad*%
%ADD10C,1.524000*%
%TD*%
%TA.AperFunction,ComponentPad*%
%ADD11R,1.524000X1.524000*%
%TD*%
%TA.AperFunction,WasherPad*%
%ADD12C,3.600000*%
%TD*%
%TA.AperFunction,ComponentPad*%
%ADD13C,1.500000*%
%TD*%
%TA.AperFunction,ComponentPad*%
%ADD14R,1.500000X1.500000*%
%TD*%
%TA.AperFunction,ComponentPad*%
%ADD15C,1.600000*%
%TD*%
%TA.AperFunction,ComponentPad*%
%ADD16RoundRect,0.250000X-0.350000X-0.625000X0.350000X-0.625000X0.350000X0.625000X-0.350000X0.625000X0*%
%TD*%
%TA.AperFunction,ComponentPad*%
%ADD17O,1.200000X1.750000*%
%TD*%
%TA.AperFunction,ViaPad*%
%ADD18C,0.600000*%
%TD*%
%TA.AperFunction,Conductor*%
%ADD19C,0.200000*%
%TD*%
%TA.AperFunction,Conductor*%
%ADD20C,0.500000*%
%TD*%
G04 APERTURE END LIST*
D10*
%TO.P,LOLION32 Lite,26,GND*%
%TO.N,0*%
X1600000Y-47340000D03*
%TO.P,LOLION32 Lite,25,GPIO12*%
%TO.N,unconnected-(U1-GPIO12-Pad25)*%
X1600000Y-44800000D03*
%TO.P,LOLION32 Lite,24,GPIO14*%
%TO.N,unconnected-(U1-GPIO14-Pad24)*%
X1600000Y-42260000D03*
%TO.P,LOLION32 Lite,23,GPIO27*%
%TO.N,unconnected-(U1-GPIO27-Pad23)*%
X1600000Y-39720000D03*
%TO.P,LOLION32 Lite,22,GPIO26*%
%TO.N,unconnected-(U1-GPIO26-Pad22)*%
X1600000Y-37180000D03*
%TO.P,LOLION32 Lite,21,GPIO25*%
%TO.N,Tri*%
X1600000Y-34640000D03*
%TO.P,LOLION32 Lite,20,GPIO33*%
%TO.N,unconnected-(U1-GPIO33-Pad20)*%
X1600000Y-32100000D03*
%TO.P,LOLION32 Lite,19,GPIO32*%
%TO.N,unconnected-(U1-GPIO32-Pad19)*%
X1600000Y-29560000D03*
%TO.P,LOLION32 Lite,18,GPIO35*%
%TO.N,unconnected-(U1-GPIO35-Pad18)*%
X1600000Y-27020000D03*
%TO.P,LOLION32 Lite,17,GPIO34*%
%TO.N,unconnected-(U1-GPIO34-Pad17)*%
X1600000Y-24480000D03*
%TO.P,LOLION32 Lite,16,EN*%
%TO.N,unconnected-(U1-EN-Pad16)*%
X1600000Y-21940000D03*
%TO.P,LOLION32 Lite,15,GPIO39*%
%TO.N,unconnected-(U1-GPIO39-Pad15)*%
X1600000Y-19400000D03*
%TO.P,LOLION32 Lite,14,GPIO36*%
%TO.N,unconnected-(U1-GPIO36-Pad14)*%
X1600000Y-16860000D03*
%TO.P,LOLION32 Lite,13,3v3*%
%TO.N,+3.3VADC*%
X24460000Y-16860000D03*
%TO.P,LOLION32 Lite,12,GPIO22*%
%TO.N,unconnected-(U1-GPIO22-Pad12)*%
X24460000Y-19400000D03*
%TO.P,LOLION32 Lite,11,GPIO19*%
%TO.N,SCL*%
X24460000Y-21940000D03*
%TO.P,LOLION32 Lite,10,GPIO23*%
%TO.N,SDA*%
X24460000Y-24480000D03*
%TO.P,LOLION32 Lite,9,GPIO18*%
%TO.N,unconnected-(U1-GPIO18-Pad9)*%
X24460000Y-27020000D03*
%TO.P,LOLION32 Lite,8,GPIO05*%
%TO.N,unconnected-(U1-GPIO05-Pad8)*%
X24460000Y-29560000D03*
%TO.P,LOLION32 Lite,7,GPIO17*%
%TO.N,unconnected-(U1-GPIO17-Pad7)*%
X24460000Y-32100000D03*
%TO.P,LOLION32 Lite,6,GPIO16*%
%TO.N,unconnected-(U1-GPIO16-Pad6)*%
X24460000Y-34640000D03*
%TO.P,LOLION32 Lite,5,GPIO04*%
%TO.N,unconnected-(U1-GPIO04-Pad5)*%
X24460000Y-37180000D03*
%TO.P,LOLION32 Lite,4,GPIO00*%
%TO.N,unconnected-(U1-GPIO00-Pad4)*%
X24460000Y-39720000D03*
%TO.P,LOLION32 Lite,3,GPIO02*%
%TO.N,unconnected-(U1-GPIO02-Pad3)*%
X24460000Y-42260000D03*
%TO.P,LOLION32 Lite,2,GPIO15*%
%TO.N,unconnected-(U1-GPIO15-Pad2)*%
X24460000Y-44800000D03*
D11*
%TO.P,LOLION32 Lite,1,GPIO13*%
%TO.N,unconnected-(U1-GPIO13-Pad1)*%
X24460000Y-47340000D03*
D12*
%TO.P,LOLION32 Lite,*%
%TO.N,*%
X23460000Y-50640000D03*
X3100000Y-11860000D03*
%TD*%
D13*
%TO.P,2SC1815,3,B*%
%TO.N,Net-(2SC1815-B)*%
X6320000Y-3950000D03*
%TO.P,2SC1815,2,C*%
%TO.N,M-*%
X3780000Y-3950000D03*
D14*
%TO.P,2SC1815,1,E*%
%TO.N,0*%
X1240000Y-3950000D03*
%TD*%
D15*
%TO.P,R1,1*%
%TO.N,Net-(2SC1815-B)*%
X13550000Y-7460000D03*
%TO.P,R1,2*%
%TO.N,Tri*%
X23710000Y-7460000D03*
%TD*%
D16*
%TO.P,Connector,1,Pin_1*%
%TO.N,M-*%
X9790000Y-2630000D03*
D17*
%TO.P,Connector,2,Pin_2*%
%TO.N,+3.3VADC*%
X11790000Y-2630000D03*
%TO.P,Connector,3,Pin_3*%
%TO.N,SCL*%
X13790000Y-2630000D03*
%TO.P,Connector,4,Pin_4*%
%TO.N,SDA*%
X15790000Y-2630000D03*
%TO.P,Connector,5,Pin_5*%
%TO.N,0*%
X17790000Y-2630000D03*
%TD*%
D15*
%TO.P,1N4007,1,K*%
%TO.N,+3.3VADC*%
X1290000Y-7460000D03*
%TO.P,1N4007,2,A*%
%TO.N,M-*%
X11450000Y-7460000D03*
%TD*%
D18*
%TO.N,0*%
X3500000Y-8500000D03*
X14500000Y-10000000D03*
X14500000Y-15500000D03*
X15000000Y-19000000D03*
X10000000Y-24000000D03*
X5000000Y-29000000D03*
X5080000Y-25400000D03*
X5080000Y-20320000D03*
X5080000Y-15240000D03*
X10160000Y-20320000D03*
X10160000Y-15240000D03*
X10160000Y-10160000D03*
X17000000Y-15500000D03*
X17000000Y-12500000D03*
X20500000Y-12500000D03*
X20500000Y-9000000D03*
X17000000Y-9000000D03*
X20500000Y-5500000D03*
X17000000Y-5500000D03*
X15000000Y-5500000D03*
X13500000Y-5500000D03*
X12000000Y-5500000D03*
X10160000Y-30480000D03*
X15240000Y-25400000D03*
X15240000Y-30480000D03*
X5080000Y-35560000D03*
X15240000Y-35560000D03*
X10160000Y-35560000D03*
X10160000Y-40640000D03*
X15240000Y-40640000D03*
X5080000Y-40640000D03*
X5080000Y-45720000D03*
X10160000Y-45720000D03*
X15240000Y-45720000D03*
X15240000Y-50800000D03*
X10160000Y-50800000D03*
X5080000Y-50800000D03*
X5080000Y-55880000D03*
X10160000Y-55880000D03*
X15240000Y-55880000D03*
X25400000Y-55880000D03*
X20320000Y-55880000D03*
X20320000Y-50800000D03*
X20320000Y-45720000D03*
X20320000Y-35560000D03*
X20320000Y-40640000D03*
X20320000Y-30480000D03*
X20320000Y-25400000D03*
X23000000Y-19000000D03*
X23000000Y-17000000D03*
X23000000Y-15000000D03*
X1000000Y-6000000D03*
X5000000Y-6000000D03*
X8000000Y-5000000D03*
X7000000Y-6000000D03*
X8000000Y-6000000D03*
X9000000Y-5000000D03*
X23000000Y-3000000D03*
X25000000Y-3000000D03*
X25000000Y-1000000D03*
X23000000Y-1000000D03*
X21000000Y-1000000D03*
X2000000Y-1000000D03*
X1000000Y-2000000D03*
X1000000Y-1000000D03*
%TD*%
D19*
%TO.N,Tri*%
X23710000Y-12530000D02*
X1600000Y-34640000D01*
X23710000Y-7460000D02*
X23710000Y-12530000D01*
D20*
%TO.N,+3.3VADC*%
X25350000Y-5900000D02*
X25350000Y-15970000D01*
X25350000Y-15970000D02*
X24460000Y-16860000D01*
X23900000Y-4450000D02*
X25350000Y-5900000D01*
X11800000Y-4450000D02*
X23900000Y-4450000D01*
%TO.N,0*%
X3886000Y-1304000D02*
X1240000Y-3950000D01*
X16464000Y-1304000D02*
X3886000Y-1304000D01*
X17790000Y-2630000D02*
X16464000Y-1304000D01*
%TO.N,+3.3VADC*%
X11800000Y-4450000D02*
X11790000Y-4440000D01*
X8790000Y-7460000D02*
X11800000Y-4450000D01*
X1290000Y-7460000D02*
X8790000Y-7460000D01*
X11790000Y-4440000D02*
X11790000Y-2630000D01*
%TD*%
%TA.AperFunction,Conductor*%
%TO.N,0*%
G36*
X24500929Y-8565930D02*
G01*
X24528454Y-8572325D01*
X24533429Y-8577442D01*
X24540155Y-8579825D01*
X24557461Y-8602161D01*
X24577158Y-8622422D01*
X24579038Y-8630010D01*
X24582947Y-8635056D01*
X24584416Y-8651720D01*
X24591500Y-8680310D01*
X24591500Y-15465500D01*
X24571815Y-15532539D01*
X24519011Y-15578294D01*
X24467500Y-15589500D01*
X24360009Y-15589500D01*
X24294169Y-15599928D01*
X24162488Y-15620784D01*
X23972299Y-15682579D01*
X23794112Y-15773371D01*
X23701806Y-15840435D01*
X23632325Y-15890917D01*
X23632323Y-15890919D01*
X23632322Y-15890919D01*
X23490919Y-16032322D01*
X23490919Y-16032323D01*
X23490917Y-16032325D01*
X23481922Y-16044706D01*
X23373371Y-16194112D01*
X23282579Y-16372299D01*
X23220784Y-16562488D01*
X23189500Y-16760009D01*
X23189500Y-16959990D01*
X23220784Y-17157511D01*
X23282579Y-17347700D01*
X23282581Y-17347703D01*
X23373371Y-17525887D01*
X23490917Y-17687675D01*
X23632325Y-17829083D01*
X23777511Y-17934567D01*
X23794117Y-17946632D01*
X23937158Y-18019516D01*
X23987954Y-18067490D01*
X24004749Y-18135311D01*
X23982211Y-18201446D01*
X23937158Y-18240484D01*
X23794117Y-18313367D01*
X23686254Y-18391735D01*
X23632325Y-18430917D01*
X23632323Y-18430919D01*
X23632322Y-18430919D01*
X23490919Y-18572322D01*
X23490919Y-18572323D01*
X23490917Y-18572325D01*
X23440435Y-18641806D01*
X23373371Y-18734112D01*
X23282579Y-18912299D01*
X23220784Y-19102488D01*
X23189500Y-19300009D01*
X23189500Y-19499990D01*
X23220784Y-19697511D01*
X23282579Y-19887700D01*
X23282581Y-19887703D01*
X23373371Y-20065887D01*
X23490917Y-20227675D01*
X23632325Y-20369083D01*
X23777511Y-20474567D01*
X23794117Y-20486632D01*
X23937158Y-20559516D01*
X23987954Y-20607490D01*
X24004749Y-20675311D01*
X23982211Y-20741446D01*
X23937158Y-20780484D01*
X23794117Y-20853367D01*
X23686254Y-20931735D01*
X23632325Y-20970917D01*
X23632323Y-20970919D01*
X23632322Y-20970919D01*
X23490919Y-21112322D01*
X23490919Y-21112323D01*
X23490917Y-21112325D01*
X23440435Y-21181806D01*
X23373371Y-21274112D01*
X23282579Y-21452299D01*
X23220784Y-21642488D01*
X23189500Y-21840009D01*
X23189500Y-22039990D01*
X23220784Y-22237511D01*
X23282579Y-22427700D01*
X23282581Y-22427703D01*
X23373371Y-22605887D01*
X23490917Y-22767675D01*
X23632325Y-22909083D01*
X23777511Y-23014567D01*
X23794117Y-23026632D01*
X23937158Y-23099516D01*
X23987954Y-23147490D01*
X24004749Y-23215311D01*
X23982211Y-23281446D01*
X23937158Y-23320484D01*
X23794117Y-23393367D01*
X23686254Y-23471735D01*
X23632325Y-23510917D01*
X23632323Y-23510919D01*
X23632322Y-23510919D01*
X23490919Y-23652322D01*
X23490919Y-23652323D01*
X23490917Y-23652325D01*
X23440435Y-23721806D01*
X23373371Y-23814112D01*
X23282579Y-23992299D01*
X23220784Y-24182488D01*
X23189500Y-24380009D01*
X23189500Y-24579990D01*
X23220784Y-24777511D01*
X23282579Y-24967700D01*
X23282581Y-24967703D01*
X23373371Y-25145887D01*
X23490917Y-25307675D01*
X23632325Y-25449083D01*
X23777511Y-25554567D01*
X23794117Y-25566632D01*
X23937158Y-25639516D01*
X23987954Y-25687490D01*
X24004749Y-25755311D01*
X23982211Y-25821446D01*
X23937158Y-25860484D01*
X23794117Y-25933367D01*
X23686254Y-26011735D01*
X23632325Y-26050917D01*
X23632323Y-26050919D01*
X23632322Y-26050919D01*
X23490919Y-26192322D01*
X23490919Y-26192323D01*
X23490917Y-26192325D01*
X23440435Y-26261806D01*
X23373371Y-26354112D01*
X23282579Y-26532299D01*
X23220784Y-26722488D01*
X23189500Y-26920009D01*
X23189500Y-27119990D01*
X23220784Y-27317511D01*
X23282579Y-27507700D01*
X23282581Y-27507703D01*
X23373371Y-27685887D01*
X23490917Y-27847675D01*
X23632325Y-27989083D01*
X23777511Y-28094567D01*
X23794117Y-28106632D01*
X23937158Y-28179516D01*
X23987954Y-28227490D01*
X24004749Y-28295311D01*
X23982211Y-28361446D01*
X23937158Y-28400484D01*
X23794117Y-28473367D01*
X23686254Y-28551735D01*
X23632325Y-28590917D01*
X23632323Y-28590919D01*
X23632322Y-28590919D01*
X23490919Y-28732322D01*
X23490919Y-28732323D01*
X23490917Y-28732325D01*
X23440435Y-28801806D01*
X23373371Y-28894112D01*
X23282579Y-29072299D01*
X23220784Y-29262488D01*
X23189500Y-29460009D01*
X23189500Y-29659990D01*
X23220784Y-29857511D01*
X23282579Y-30047700D01*
X23282581Y-30047703D01*
X23373371Y-30225887D01*
X23490917Y-30387675D01*
X23632325Y-30529083D01*
X23777511Y-30634567D01*
X23794117Y-30646632D01*
X23937158Y-30719516D01*
X23987954Y-30767490D01*
X24004749Y-30835311D01*
X23982211Y-30901446D01*
X23937158Y-30940484D01*
X23794117Y-31013367D01*
X23686254Y-31091735D01*
X23632325Y-31130917D01*
X23632323Y-31130919D01*
X23632322Y-31130919D01*
X23490919Y-31272322D01*
X23490919Y-31272323D01*
X23490917Y-31272325D01*
X23440435Y-31341806D01*
X23373371Y-31434112D01*
X23282579Y-31612299D01*
X23220784Y-31802488D01*
X23189500Y-32000009D01*
X23189500Y-32199990D01*
X23220784Y-32397511D01*
X23282579Y-32587700D01*
X23282581Y-32587703D01*
X23373371Y-32765887D01*
X23490917Y-32927675D01*
X23632325Y-33069083D01*
X23777511Y-33174567D01*
X23794117Y-33186632D01*
X23937158Y-33259516D01*
X23987954Y-33307490D01*
X24004749Y-33375311D01*
X23982211Y-33441446D01*
X23937158Y-33480484D01*
X23794117Y-33553367D01*
X23686254Y-33631735D01*
X23632325Y-33670917D01*
X23632323Y-33670919D01*
X23632322Y-33670919D01*
X23490919Y-33812322D01*
X23490919Y-33812323D01*
X23490917Y-33812325D01*
X23440435Y-33881806D01*
X23373371Y-33974112D01*
X23282579Y-34152299D01*
X23220784Y-34342488D01*
X23189500Y-34540009D01*
X23189500Y-34739990D01*
X23220784Y-34937511D01*
X23282579Y-35127700D01*
X23282581Y-35127703D01*
X23373371Y-35305887D01*
X23490917Y-35467675D01*
X23632325Y-35609083D01*
X23777511Y-35714567D01*
X23794117Y-35726632D01*
X23937158Y-35799516D01*
X23987954Y-35847490D01*
X24004749Y-35915311D01*
X23982211Y-35981446D01*
X23937158Y-36020484D01*
X23794117Y-36093367D01*
X23686254Y-36171735D01*
X23632325Y-36210917D01*
X23632323Y-36210919D01*
X23632322Y-36210919D01*
X23490919Y-36352322D01*
X23490919Y-36352323D01*
X23490917Y-36352325D01*
X23440435Y-36421806D01*
X23373371Y-36514112D01*
X23282579Y-36692299D01*
X23220784Y-36882488D01*
X23189500Y-37080009D01*
X23189500Y-37279990D01*
X23220784Y-37477511D01*
X23282579Y-37667700D01*
X23282581Y-37667703D01*
X23373371Y-37845887D01*
X23490917Y-38007675D01*
X23632325Y-38149083D01*
X23777511Y-38254567D01*
X23794117Y-38266632D01*
X23937158Y-38339516D01*
X23987954Y-38387490D01*
X24004749Y-38455311D01*
X23982211Y-38521446D01*
X23937158Y-38560484D01*
X23794117Y-38633367D01*
X23686254Y-38711735D01*
X23632325Y-38750917D01*
X23632323Y-38750919D01*
X23632322Y-38750919D01*
X23490919Y-38892322D01*
X23490919Y-38892323D01*
X23490917Y-38892325D01*
X23440435Y-38961806D01*
X23373371Y-39054112D01*
X23282579Y-39232299D01*
X23220784Y-39422488D01*
X23189500Y-39620009D01*
X23189500Y-39819990D01*
X23220784Y-40017511D01*
X23282579Y-40207700D01*
X23282581Y-40207703D01*
X23373371Y-40385887D01*
X23490917Y-40547675D01*
X23632325Y-40689083D01*
X23777511Y-40794567D01*
X23794117Y-40806632D01*
X23937158Y-40879516D01*
X23987954Y-40927490D01*
X24004749Y-40995311D01*
X23982211Y-41061446D01*
X23937158Y-41100484D01*
X23794117Y-41173367D01*
X23686254Y-41251735D01*
X23632325Y-41290917D01*
X23632323Y-41290919D01*
X23632322Y-41290919D01*
X23490919Y-41432322D01*
X23490919Y-41432323D01*
X23490917Y-41432325D01*
X23440435Y-41501806D01*
X23373371Y-41594112D01*
X23282579Y-41772299D01*
X23220784Y-41962488D01*
X23189500Y-42160009D01*
X23189500Y-42359990D01*
X23220784Y-42557511D01*
X23282579Y-42747700D01*
X23282581Y-42747703D01*
X23373371Y-42925887D01*
X23490917Y-43087675D01*
X23632325Y-43229083D01*
X23777511Y-43334567D01*
X23794117Y-43346632D01*
X23937158Y-43419516D01*
X23987954Y-43467490D01*
X24004749Y-43535311D01*
X23982211Y-43601446D01*
X23937158Y-43640484D01*
X23794117Y-43713367D01*
X23686254Y-43791735D01*
X23632325Y-43830917D01*
X23632323Y-43830919D01*
X23632322Y-43830919D01*
X23490919Y-43972322D01*
X23490919Y-43972323D01*
X23490917Y-43972325D01*
X23440435Y-44041806D01*
X23373371Y-44134112D01*
X23282579Y-44312299D01*
X23220784Y-44502488D01*
X23189500Y-44700009D01*
X23189500Y-44899990D01*
X23220784Y-45097511D01*
X23282579Y-45287700D01*
X23282581Y-45287703D01*
X23373371Y-45465887D01*
X23490917Y-45627675D01*
X23632325Y-45769083D01*
X23632328Y-45769085D01*
X23737066Y-45845182D01*
X23779732Y-45900512D01*
X23785711Y-45970125D01*
X23753105Y-46031920D01*
X23692266Y-46066278D01*
X23664181Y-46069500D01*
X23649345Y-46069500D01*
X23588797Y-46076011D01*
X23588795Y-46076011D01*
X23451795Y-46127111D01*
X23334739Y-46214739D01*
X23247111Y-46331795D01*
X23196011Y-46468795D01*
X23196011Y-46468797D01*
X23189500Y-46529345D01*
X23189500Y-48150654D01*
X23196840Y-48218912D01*
X23194868Y-48219124D01*
X23191675Y-48278503D01*
X23150799Y-48335167D01*
X23090933Y-48360168D01*
X23046327Y-48366040D01*
X23008668Y-48370999D01*
X22833084Y-48418047D01*
X22716360Y-48449323D01*
X22436792Y-48565124D01*
X22436782Y-48565128D01*
X22174714Y-48716433D01*
X21934635Y-48900652D01*
X21934628Y-48900658D01*
X21720658Y-49114628D01*
X21720652Y-49114635D01*
X21536433Y-49354714D01*
X21385128Y-49616782D01*
X21385124Y-49616792D01*
X21269323Y-49896360D01*
X21190998Y-50188671D01*
X21151501Y-50488683D01*
X21151500Y-50488699D01*
X21151500Y-50791300D01*
X21151501Y-50791316D01*
X21190998Y-51091328D01*
X21269323Y-51383639D01*
X21385124Y-51663207D01*
X21385128Y-51663217D01*
X21536433Y-51925285D01*
X21720652Y-52165364D01*
X21720658Y-52165371D01*
X21934628Y-52379341D01*
X21934635Y-52379347D01*
X22174714Y-52563566D01*
X22436782Y-52714871D01*
X22436783Y-52714871D01*
X22436786Y-52714873D01*
X22716365Y-52830678D01*
X23008668Y-52909001D01*
X23308693Y-52948500D01*
X23308700Y-52948500D01*
X23611300Y-52948500D01*
X23611307Y-52948500D01*
X23911332Y-52909001D01*
X24203635Y-52830678D01*
X24483214Y-52714873D01*
X24745286Y-52563566D01*
X24985366Y-52379346D01*
X25199346Y-52165366D01*
X25383566Y-51925286D01*
X25534873Y-51663214D01*
X25650678Y-51383635D01*
X25655725Y-51364796D01*
X25692090Y-51305138D01*
X25754937Y-51274609D01*
X25824313Y-51282904D01*
X25878191Y-51327389D01*
X25899465Y-51393941D01*
X25899500Y-51396892D01*
X25899500Y-58775500D01*
X25879815Y-58842539D01*
X25827011Y-58888294D01*
X25775500Y-58899500D01*
X224500Y-58899500D01*
X157461Y-58879815D01*
X111706Y-58827011D01*
X100500Y-58775500D01*
X100500Y-47515372D01*
X120185Y-47448333D01*
X172989Y-47402578D01*
X242147Y-47392634D01*
X305703Y-47421659D01*
X343477Y-47480437D01*
X346973Y-47495974D01*
X369075Y-47635520D01*
X369075Y-47635523D01*
X430457Y-47824437D01*
X520641Y-48001432D01*
X547730Y-48038715D01*
X547731Y-48038716D01*
X1219000Y-47367447D01*
X1219000Y-47390160D01*
X1244964Y-47487061D01*
X1295124Y-47573940D01*
X1366060Y-47644876D01*
X1452939Y-47695036D01*
X1549840Y-47721000D01*
X1572553Y-47721000D01*
X901283Y-48392268D01*
X901283Y-48392269D01*
X938567Y-48419358D01*
X1115562Y-48509542D01*
X1304477Y-48570924D01*
X1500679Y-48602000D01*
X1699321Y-48602000D01*
X1895520Y-48570924D01*
X1895523Y-48570924D01*
X2084437Y-48509542D01*
X2261425Y-48419362D01*
X2298716Y-48392268D01*
X1627448Y-47721000D01*
X1650160Y-47721000D01*
X1747061Y-47695036D01*
X1833940Y-47644876D01*
X1904876Y-47573940D01*
X1955036Y-47487061D01*
X1981000Y-47390160D01*
X1981000Y-47367447D01*
X2652268Y-48038715D01*
X2679362Y-48001425D01*
X2769542Y-47824437D01*
X2830924Y-47635523D01*
X2830924Y-47635520D01*
X2862000Y-47439321D01*
X2862000Y-47240678D01*
X2830924Y-47044479D01*
X2830924Y-47044476D01*
X2769542Y-46855562D01*
X2679358Y-46678567D01*
X2652268Y-46641283D01*
X1981000Y-47312551D01*
X1981000Y-47289840D01*
X1955036Y-47192939D01*
X1904876Y-47106060D01*
X1833940Y-47035124D01*
X1747061Y-46984964D01*
X1650160Y-46959000D01*
X1627447Y-46959000D01*
X2298716Y-46287731D01*
X2298715Y-46287730D01*
X2261432Y-46260641D01*
X2113479Y-46185255D01*
X2062683Y-46137280D01*
X2045888Y-46069459D01*
X2068425Y-46003324D01*
X2113477Y-45964285D01*
X2265887Y-45886629D01*
X2427675Y-45769083D01*
X2569083Y-45627675D01*
X2686629Y-45465887D01*
X2777419Y-45287703D01*
X2839216Y-45097510D01*
X2870500Y-44899991D01*
X2870500Y-44700009D01*
X2839216Y-44502490D01*
X2806900Y-44403032D01*
X2777420Y-44312299D01*
X2686628Y-44134112D01*
X2569083Y-43972325D01*
X2427675Y-43830917D01*
X2265887Y-43713371D01*
X2122840Y-43640484D01*
X2072045Y-43592510D01*
X2055250Y-43524689D01*
X2077788Y-43458554D01*
X2122841Y-43419515D01*
X2265887Y-43346629D01*
X2427675Y-43229083D01*
X2569083Y-43087675D01*
X2686629Y-42925887D01*
X2777419Y-42747703D01*
X2839216Y-42557510D01*
X2870500Y-42359991D01*
X2870500Y-42160009D01*
X2839216Y-41962490D01*
X2806900Y-41863032D01*
X2777420Y-41772299D01*
X2686628Y-41594112D01*
X2569083Y-41432325D01*
X2427675Y-41290917D01*
X2265887Y-41173371D01*
X2122840Y-41100484D01*
X2072045Y-41052510D01*
X2055250Y-40984689D01*
X2077788Y-40918554D01*
X2122841Y-40879515D01*
X2265887Y-40806629D01*
X2427675Y-40689083D01*
X2569083Y-40547675D01*
X2686629Y-40385887D01*
X2777419Y-40207703D01*
X2839216Y-40017510D01*
X2870500Y-39819991D01*
X2870500Y-39620009D01*
X2839216Y-39422490D01*
X2806900Y-39323032D01*
X2777420Y-39232299D01*
X2686628Y-39054112D01*
X2569083Y-38892325D01*
X2427675Y-38750917D01*
X2265887Y-38633371D01*
X2122840Y-38560484D01*
X2072045Y-38512510D01*
X2055250Y-38444689D01*
X2077788Y-38378554D01*
X2122841Y-38339515D01*
X2265887Y-38266629D01*
X2427675Y-38149083D01*
X2569083Y-38007675D01*
X2686629Y-37845887D01*
X2777419Y-37667703D01*
X2839216Y-37477510D01*
X2870500Y-37279991D01*
X2870500Y-37080009D01*
X2839216Y-36882490D01*
X2806900Y-36783032D01*
X2777420Y-36692299D01*
X2686628Y-36514112D01*
X2569083Y-36352325D01*
X2427675Y-36210917D01*
X2265887Y-36093371D01*
X2122840Y-36020484D01*
X2072045Y-35972510D01*
X2055250Y-35904689D01*
X2077788Y-35838554D01*
X2122841Y-35799515D01*
X2265887Y-35726629D01*
X2427675Y-35609083D01*
X2569083Y-35467675D01*
X2686629Y-35305887D01*
X2777419Y-35127703D01*
X2839216Y-34937510D01*
X2870500Y-34739991D01*
X2870500Y-34540009D01*
X2852472Y-34426183D01*
X2838454Y-34337678D01*
X2840078Y-34337420D01*
X2843196Y-34274812D01*
X2872605Y-34227942D01*
X24196922Y-12903627D01*
X24277032Y-12764872D01*
X24318500Y-12610110D01*
X24318500Y-12449890D01*
X24318500Y-8694504D01*
X24322007Y-8682558D01*
X24320914Y-8670158D01*
X24331665Y-8649666D01*
X24338185Y-8627465D01*
X24348377Y-8617816D01*
X24353377Y-8608288D01*
X24376500Y-8591193D01*
X24381277Y-8586672D01*
X24383708Y-8585291D01*
X24395803Y-8579129D01*
X24400238Y-8575906D01*
X24406277Y-8572478D01*
X24433786Y-8566014D01*
X24460397Y-8556514D01*
X24467346Y-8558128D01*
X24474295Y-8556496D01*
X24500929Y-8565930D01*
G37*
%TD.AperFunction*%
%TA.AperFunction,Conductor*%
G36*
X305703Y-44935996D02*
G01*
X343477Y-44994774D01*
X346973Y-45010311D01*
X360784Y-45097511D01*
X422579Y-45287700D01*
X422581Y-45287703D01*
X513371Y-45465887D01*
X630917Y-45627675D01*
X772325Y-45769083D01*
X934113Y-45886629D01*
X961360Y-45900512D01*
X1086520Y-45964285D01*
X1137316Y-46012260D01*
X1154111Y-46080081D01*
X1131573Y-46146216D01*
X1086520Y-46185255D01*
X938564Y-46260643D01*
X901283Y-46287729D01*
X901282Y-46287730D01*
X1572554Y-46959000D01*
X1549840Y-46959000D01*
X1452939Y-46984964D01*
X1366060Y-47035124D01*
X1295124Y-47106060D01*
X1244964Y-47192939D01*
X1219000Y-47289840D01*
X1219000Y-47312552D01*
X547730Y-46641282D01*
X547729Y-46641283D01*
X520643Y-46678564D01*
X430457Y-46855562D01*
X369075Y-47044476D01*
X369075Y-47044479D01*
X346973Y-47184025D01*
X317044Y-47247160D01*
X257732Y-47284091D01*
X187870Y-47283093D01*
X129637Y-47244483D01*
X101523Y-47180519D01*
X100500Y-47164627D01*
X100500Y-45029709D01*
X120185Y-44962670D01*
X172989Y-44916915D01*
X242147Y-44906971D01*
X305703Y-44935996D01*
G37*
%TD.AperFunction*%
%TA.AperFunction,Conductor*%
G36*
X23601496Y-5228185D02*
G01*
X23622138Y-5244819D01*
X24499501Y-6122182D01*
X24532986Y-6183505D01*
X24528002Y-6253197D01*
X24486130Y-6309130D01*
X24420666Y-6333547D01*
X24355525Y-6320348D01*
X24212294Y-6247367D01*
X24016408Y-6183719D01*
X23840794Y-6155905D01*
X23812981Y-6151500D01*
X23607019Y-6151500D01*
X23582550Y-6155375D01*
X23403591Y-6183719D01*
X23207705Y-6247367D01*
X23024193Y-6340873D01*
X22857576Y-6461926D01*
X22857571Y-6461930D01*
X22711930Y-6607571D01*
X22711926Y-6607576D01*
X22590873Y-6774193D01*
X22497367Y-6957705D01*
X22433719Y-7153591D01*
X22401500Y-7357019D01*
X22401500Y-7562980D01*
X22433719Y-7766408D01*
X22497367Y-7962294D01*
X22590873Y-8145806D01*
X22711926Y-8312423D01*
X22711930Y-8312428D01*
X22857571Y-8458069D01*
X22857576Y-8458073D01*
X23024192Y-8579126D01*
X23024194Y-8579127D01*
X23024197Y-8579129D01*
X23033793Y-8584018D01*
X23084590Y-8631992D01*
X23101500Y-8694504D01*
X23101500Y-12226588D01*
X23081815Y-12293627D01*
X23065181Y-12314269D01*
X3081777Y-32297672D01*
X3020454Y-32331157D01*
X2950762Y-32326173D01*
X2894829Y-32284301D01*
X2870412Y-32218837D01*
X2870479Y-32200252D01*
X2870500Y-32199985D01*
X2870500Y-32000009D01*
X2862602Y-31950146D01*
X2839216Y-31802490D01*
X2806900Y-31703032D01*
X2777420Y-31612299D01*
X2686628Y-31434112D01*
X2569083Y-31272325D01*
X2427675Y-31130917D01*
X2265887Y-31013371D01*
X2122840Y-30940484D01*
X2072045Y-30892510D01*
X2055250Y-30824689D01*
X2077788Y-30758554D01*
X2122841Y-30719515D01*
X2265887Y-30646629D01*
X2427675Y-30529083D01*
X2569083Y-30387675D01*
X2686629Y-30225887D01*
X2777419Y-30047703D01*
X2839216Y-29857510D01*
X2870500Y-29659991D01*
X2870500Y-29460009D01*
X2839216Y-29262490D01*
X2806900Y-29163032D01*
X2777420Y-29072299D01*
X2686628Y-28894112D01*
X2569083Y-28732325D01*
X2427675Y-28590917D01*
X2265887Y-28473371D01*
X2122840Y-28400484D01*
X2072045Y-28352510D01*
X2055250Y-28284689D01*
X2077788Y-28218554D01*
X2122841Y-28179515D01*
X2265887Y-28106629D01*
X2427675Y-27989083D01*
X2569083Y-27847675D01*
X2686629Y-27685887D01*
X2777419Y-27507703D01*
X2839216Y-27317510D01*
X2870500Y-27119991D01*
X2870500Y-26920009D01*
X2839216Y-26722490D01*
X2806900Y-26623032D01*
X2777420Y-26532299D01*
X2686628Y-26354112D01*
X2569083Y-26192325D01*
X2427675Y-26050917D01*
X2265887Y-25933371D01*
X2122840Y-25860484D01*
X2072045Y-25812510D01*
X2055250Y-25744689D01*
X2077788Y-25678554D01*
X2122841Y-25639515D01*
X2265887Y-25566629D01*
X2427675Y-25449083D01*
X2569083Y-25307675D01*
X2686629Y-25145887D01*
X2777419Y-24967703D01*
X2839216Y-24777510D01*
X2870500Y-24579991D01*
X2870500Y-24380009D01*
X2839216Y-24182490D01*
X2806900Y-24083032D01*
X2777420Y-23992299D01*
X2686628Y-23814112D01*
X2569083Y-23652325D01*
X2427675Y-23510917D01*
X2265887Y-23393371D01*
X2122840Y-23320484D01*
X2072045Y-23272510D01*
X2055250Y-23204689D01*
X2077788Y-23138554D01*
X2122841Y-23099515D01*
X2265887Y-23026629D01*
X2427675Y-22909083D01*
X2569083Y-22767675D01*
X2686629Y-22605887D01*
X2777419Y-22427703D01*
X2839216Y-22237510D01*
X2870500Y-22039991D01*
X2870500Y-21840009D01*
X2839216Y-21642490D01*
X2806900Y-21543032D01*
X2777420Y-21452299D01*
X2686628Y-21274112D01*
X2569083Y-21112325D01*
X2427675Y-20970917D01*
X2265887Y-20853371D01*
X2122840Y-20780484D01*
X2072045Y-20732510D01*
X2055250Y-20664689D01*
X2077788Y-20598554D01*
X2122841Y-20559515D01*
X2265887Y-20486629D01*
X2427675Y-20369083D01*
X2569083Y-20227675D01*
X2686629Y-20065887D01*
X2777419Y-19887703D01*
X2839216Y-19697510D01*
X2870500Y-19499991D01*
X2870500Y-19300009D01*
X2839216Y-19102490D01*
X2806900Y-19003032D01*
X2777420Y-18912299D01*
X2686628Y-18734112D01*
X2569083Y-18572325D01*
X2427675Y-18430917D01*
X2265887Y-18313371D01*
X2122840Y-18240484D01*
X2072045Y-18192510D01*
X2055250Y-18124689D01*
X2077788Y-18058554D01*
X2122841Y-18019515D01*
X2265887Y-17946629D01*
X2427675Y-17829083D01*
X2569083Y-17687675D01*
X2686629Y-17525887D01*
X2777419Y-17347703D01*
X2839216Y-17157510D01*
X2870500Y-16959991D01*
X2870500Y-16760009D01*
X2839216Y-16562490D01*
X2777419Y-16372297D01*
X2686629Y-16194113D01*
X2569083Y-16032325D01*
X2427675Y-15890917D01*
X2265887Y-15773371D01*
X2087700Y-15682579D01*
X1897511Y-15620784D01*
X1798750Y-15605142D01*
X1699991Y-15589500D01*
X1500009Y-15589500D01*
X1434169Y-15599928D01*
X1302488Y-15620784D01*
X1112299Y-15682579D01*
X934112Y-15773371D01*
X841806Y-15840435D01*
X772325Y-15890917D01*
X772323Y-15890919D01*
X772322Y-15890919D01*
X630919Y-16032322D01*
X630919Y-16032323D01*
X630917Y-16032325D01*
X621922Y-16044706D01*
X513371Y-16194112D01*
X422579Y-16372299D01*
X360784Y-16562488D01*
X346973Y-16649688D01*
X317044Y-16712823D01*
X257732Y-16749754D01*
X187870Y-16748756D01*
X129637Y-16710146D01*
X101523Y-16646183D01*
X100500Y-16630290D01*
X100500Y-11708699D01*
X791500Y-11708699D01*
X791500Y-12011300D01*
X791501Y-12011316D01*
X830998Y-12311328D01*
X909323Y-12603639D01*
X1025124Y-12883207D01*
X1025128Y-12883217D01*
X1176433Y-13145285D01*
X1360652Y-13385364D01*
X1360658Y-13385371D01*
X1574628Y-13599341D01*
X1574635Y-13599347D01*
X1814714Y-13783566D01*
X2076782Y-13934871D01*
X2076783Y-13934871D01*
X2076786Y-13934873D01*
X2356365Y-14050678D01*
X2648668Y-14129001D01*
X2948693Y-14168500D01*
X2948700Y-14168500D01*
X3251300Y-14168500D01*
X3251307Y-14168500D01*
X3551332Y-14129001D01*
X3843635Y-14050678D01*
X4123214Y-13934873D01*
X4385286Y-13783566D01*
X4625366Y-13599346D01*
X4839346Y-13385366D01*
X5023566Y-13145286D01*
X5174873Y-12883214D01*
X5290678Y-12603635D01*
X5369001Y-12311332D01*
X5408500Y-12011307D01*
X5408500Y-11708693D01*
X5369001Y-11408668D01*
X5290678Y-11116365D01*
X5174873Y-10836786D01*
X5023566Y-10574714D01*
X4839346Y-10334634D01*
X4839341Y-10334628D01*
X4625371Y-10120658D01*
X4625364Y-10120652D01*
X4385285Y-9936433D01*
X4123217Y-9785128D01*
X4123207Y-9785124D01*
X3843639Y-9669323D01*
X3551328Y-9590998D01*
X3251316Y-9551501D01*
X3251313Y-9551500D01*
X3251307Y-9551500D01*
X2948693Y-9551500D01*
X2948687Y-9551500D01*
X2948683Y-9551501D01*
X2648671Y-9590998D01*
X2356360Y-9669323D01*
X2076792Y-9785124D01*
X2076782Y-9785128D01*
X1814714Y-9936433D01*
X1574635Y-10120652D01*
X1574628Y-10120658D01*
X1360658Y-10334628D01*
X1360652Y-10334635D01*
X1176433Y-10574714D01*
X1025128Y-10836782D01*
X1025124Y-10836792D01*
X909323Y-11116360D01*
X830998Y-11408671D01*
X791501Y-11708683D01*
X791500Y-11708699D01*
X100500Y-11708699D01*
X100500Y-8420360D01*
X120185Y-8353321D01*
X172989Y-8307566D01*
X242147Y-8297622D01*
X305703Y-8326647D01*
X312181Y-8332679D01*
X437571Y-8458069D01*
X437576Y-8458073D01*
X573045Y-8556496D01*
X604197Y-8579129D01*
X704056Y-8630010D01*
X787705Y-8672632D01*
X787707Y-8672632D01*
X787710Y-8672634D01*
X855019Y-8694504D01*
X983591Y-8736280D01*
X1085305Y-8752390D01*
X1187019Y-8768500D01*
X1187020Y-8768500D01*
X1392980Y-8768500D01*
X1392981Y-8768500D01*
X1596408Y-8736280D01*
X1792290Y-8672634D01*
X1975803Y-8579129D01*
X2142430Y-8458068D01*
X2288068Y-8312430D01*
X2319175Y-8269615D01*
X2374505Y-8226949D01*
X2419493Y-8218500D01*
X8864706Y-8218500D01*
X8937976Y-8203925D01*
X8937977Y-8203925D01*
X8956419Y-8200256D01*
X9011247Y-8189351D01*
X9149284Y-8132174D01*
X9273515Y-8049166D01*
X9929819Y-7392860D01*
X9991142Y-7359376D01*
X10060833Y-7364360D01*
X10116767Y-7406231D01*
X10141184Y-7471696D01*
X10141500Y-7480542D01*
X10141500Y-7562980D01*
X10173719Y-7766408D01*
X10237367Y-7962294D01*
X10330873Y-8145806D01*
X10451926Y-8312423D01*
X10451930Y-8312428D01*
X10597571Y-8458069D01*
X10597576Y-8458073D01*
X10733045Y-8556496D01*
X10764197Y-8579129D01*
X10864056Y-8630010D01*
X10947705Y-8672632D01*
X10947707Y-8672632D01*
X10947710Y-8672634D01*
X11015019Y-8694504D01*
X11143591Y-8736280D01*
X11245305Y-8752390D01*
X11347019Y-8768500D01*
X11347020Y-8768500D01*
X11552980Y-8768500D01*
X11552981Y-8768500D01*
X11756408Y-8736280D01*
X11952290Y-8672634D01*
X12135803Y-8579129D01*
X12302430Y-8458068D01*
X12412319Y-8348179D01*
X12473642Y-8314694D01*
X12543334Y-8319678D01*
X12587681Y-8348179D01*
X12697571Y-8458069D01*
X12697576Y-8458073D01*
X12833045Y-8556496D01*
X12864197Y-8579129D01*
X12964056Y-8630010D01*
X13047705Y-8672632D01*
X13047707Y-8672632D01*
X13047710Y-8672634D01*
X13115019Y-8694504D01*
X13243591Y-8736280D01*
X13345305Y-8752390D01*
X13447019Y-8768500D01*
X13447020Y-8768500D01*
X13652980Y-8768500D01*
X13652981Y-8768500D01*
X13856408Y-8736280D01*
X14052290Y-8672634D01*
X14235803Y-8579129D01*
X14402430Y-8458068D01*
X14548068Y-8312430D01*
X14669129Y-8145803D01*
X14762634Y-7962290D01*
X14826280Y-7766408D01*
X14858500Y-7562981D01*
X14858500Y-7357019D01*
X14826280Y-7153592D01*
X14762634Y-6957710D01*
X14762632Y-6957707D01*
X14762632Y-6957705D01*
X14728709Y-6891128D01*
X14669129Y-6774197D01*
X14579175Y-6650385D01*
X14548073Y-6607576D01*
X14548069Y-6607571D01*
X14402428Y-6461930D01*
X14402423Y-6461926D01*
X14235806Y-6340873D01*
X14235805Y-6340872D01*
X14235803Y-6340871D01*
X14173508Y-6309130D01*
X14052294Y-6247367D01*
X13856408Y-6183719D01*
X13680794Y-6155905D01*
X13652981Y-6151500D01*
X13447019Y-6151500D01*
X13422550Y-6155375D01*
X13243591Y-6183719D01*
X13047705Y-6247367D01*
X12864193Y-6340873D01*
X12697576Y-6461926D01*
X12697571Y-6461930D01*
X12587681Y-6571821D01*
X12526358Y-6605306D01*
X12456666Y-6600322D01*
X12412319Y-6571821D01*
X12302428Y-6461930D01*
X12302423Y-6461926D01*
X12135806Y-6340873D01*
X12135805Y-6340872D01*
X12135803Y-6340871D01*
X12073508Y-6309130D01*
X11952294Y-6247367D01*
X11756408Y-6183719D01*
X11580794Y-6155905D01*
X11552981Y-6151500D01*
X11470542Y-6151500D01*
X11403503Y-6131815D01*
X11357748Y-6079011D01*
X11347804Y-6009853D01*
X11376829Y-5946297D01*
X11382861Y-5939819D01*
X12077862Y-5244819D01*
X12139185Y-5211334D01*
X12165543Y-5208500D01*
X23534457Y-5208500D01*
X23601496Y-5228185D01*
G37*
%TD.AperFunction*%
%TA.AperFunction,Conductor*%
G36*
X25842539Y-120185D02*
G01*
X25888294Y-172989D01*
X25899500Y-224500D01*
X25899500Y-5077456D01*
X25879815Y-5144495D01*
X25827011Y-5190250D01*
X25757853Y-5200194D01*
X25694297Y-5171169D01*
X25687819Y-5165137D01*
X24383517Y-3860835D01*
X24285894Y-3795606D01*
X24259284Y-3777826D01*
X24121247Y-3720649D01*
X24121239Y-3720647D01*
X24047976Y-3706074D01*
X23974709Y-3691500D01*
X23974706Y-3691500D01*
X18821612Y-3691500D01*
X18754573Y-3671815D01*
X18708818Y-3619011D01*
X18698874Y-3549853D01*
X18721295Y-3494614D01*
X18730801Y-3481529D01*
X18809408Y-3327257D01*
X18862914Y-3162584D01*
X18890000Y-2991571D01*
X18890000Y-2880000D01*
X18070330Y-2880000D01*
X18090075Y-2860255D01*
X18139444Y-2774745D01*
X18165000Y-2679370D01*
X18165000Y-2580630D01*
X18139444Y-2485255D01*
X18090075Y-2399745D01*
X18070330Y-2380000D01*
X18890000Y-2380000D01*
X18890000Y-2268428D01*
X18862914Y-2097415D01*
X18809408Y-1932742D01*
X18730804Y-1778475D01*
X18629032Y-1638397D01*
X18506602Y-1515967D01*
X18366524Y-1414195D01*
X18212257Y-1335591D01*
X18047589Y-1282087D01*
X18047581Y-1282085D01*
X18040000Y-1280884D01*
X18040000Y-2349670D01*
X18020255Y-2329925D01*
X17934745Y-2280556D01*
X17839370Y-2255000D01*
X17740630Y-2255000D01*
X17645255Y-2280556D01*
X17559745Y-2329925D01*
X17540000Y-2349670D01*
X17540000Y-1280884D01*
X17539999Y-1280884D01*
X17532418Y-1282085D01*
X17532410Y-1282087D01*
X17367742Y-1335591D01*
X17213475Y-1414195D01*
X17073397Y-1515967D01*
X16950965Y-1638399D01*
X16895571Y-1714643D01*
X16840241Y-1757308D01*
X16770627Y-1763287D01*
X16708832Y-1730681D01*
X16694935Y-1714642D01*
X16635522Y-1632867D01*
X16635518Y-1632862D01*
X16512137Y-1509481D01*
X16512132Y-1509477D01*
X16370984Y-1406928D01*
X16370983Y-1406927D01*
X16370981Y-1406926D01*
X16321175Y-1381548D01*
X16215516Y-1327711D01*
X16215513Y-1327710D01*
X16049575Y-1273795D01*
X15963407Y-1260147D01*
X15877241Y-1246500D01*
X15702759Y-1246500D01*
X15645314Y-1255598D01*
X15530424Y-1273795D01*
X15364486Y-1327710D01*
X15364483Y-1327711D01*
X15209015Y-1406928D01*
X15067867Y-1509477D01*
X15067862Y-1509481D01*
X14944481Y-1632862D01*
X14890318Y-1707412D01*
X14834988Y-1750077D01*
X14765375Y-1756056D01*
X14703580Y-1723450D01*
X14689682Y-1707412D01*
X14635518Y-1632862D01*
X14512137Y-1509481D01*
X14512132Y-1509477D01*
X14370984Y-1406928D01*
X14370983Y-1406927D01*
X14370981Y-1406926D01*
X14321175Y-1381548D01*
X14215516Y-1327711D01*
X14215513Y-1327710D01*
X14049575Y-1273795D01*
X13963407Y-1260147D01*
X13877241Y-1246500D01*
X13702759Y-1246500D01*
X13645314Y-1255598D01*
X13530424Y-1273795D01*
X13364486Y-1327710D01*
X13364483Y-1327711D01*
X13209015Y-1406928D01*
X13067867Y-1509477D01*
X13067862Y-1509481D01*
X12944481Y-1632862D01*
X12890318Y-1707412D01*
X12834988Y-1750077D01*
X12765375Y-1756056D01*
X12703580Y-1723450D01*
X12689682Y-1707412D01*
X12635518Y-1632862D01*
X12512137Y-1509481D01*
X12512132Y-1509477D01*
X12370984Y-1406928D01*
X12370983Y-1406927D01*
X12370981Y-1406926D01*
X12321175Y-1381548D01*
X12215516Y-1327711D01*
X12215513Y-1327710D01*
X12049575Y-1273795D01*
X11963407Y-1260147D01*
X11877241Y-1246500D01*
X11702759Y-1246500D01*
X11645314Y-1255598D01*
X11530424Y-1273795D01*
X11364486Y-1327710D01*
X11364483Y-1327711D01*
X11209015Y-1406928D01*
X11067868Y-1509476D01*
X10967027Y-1610317D01*
X10905704Y-1643801D01*
X10836012Y-1638817D01*
X10780079Y-1596945D01*
X10773807Y-1587731D01*
X10739030Y-1531348D01*
X10613653Y-1405971D01*
X10613652Y-1405970D01*
X10462738Y-1312885D01*
X10462735Y-1312884D01*
X10294427Y-1257113D01*
X10190546Y-1246500D01*
X9389462Y-1246500D01*
X9389446Y-1246501D01*
X9285572Y-1257113D01*
X9117264Y-1312884D01*
X9117259Y-1312886D01*
X8966346Y-1405971D01*
X8840971Y-1531346D01*
X8747886Y-1682259D01*
X8747884Y-1682264D01*
X8692113Y-1850572D01*
X8681500Y-1954447D01*
X8681500Y-3305537D01*
X8681501Y-3305553D01*
X8692113Y-3409427D01*
X8747884Y-3577735D01*
X8747886Y-3577740D01*
X8778356Y-3627139D01*
X8840970Y-3728652D01*
X8966348Y-3854030D01*
X9117262Y-3947115D01*
X9285574Y-4002887D01*
X9389455Y-4013500D01*
X10190544Y-4013499D01*
X10294426Y-4002887D01*
X10462738Y-3947115D01*
X10613652Y-3854030D01*
X10739030Y-3728652D01*
X10773808Y-3672267D01*
X10791097Y-3656716D01*
X10805036Y-3638097D01*
X10816586Y-3633788D01*
X10825754Y-3625543D01*
X10848711Y-3621806D01*
X10870500Y-3613680D01*
X10882546Y-3616300D01*
X10894716Y-3614320D01*
X10916048Y-3623588D01*
X10938773Y-3628532D01*
X10954467Y-3640281D01*
X10958799Y-3642163D01*
X10967027Y-3649683D01*
X10995181Y-3677837D01*
X11028666Y-3739160D01*
X11031500Y-3765518D01*
X11031500Y-4094457D01*
X11011815Y-4161496D01*
X10995181Y-4182138D01*
X8512138Y-6665181D01*
X8450815Y-6698666D01*
X8424457Y-6701500D01*
X2419493Y-6701500D01*
X2352454Y-6681815D01*
X2319175Y-6650385D01*
X2288070Y-6607573D01*
X2288068Y-6607570D01*
X2142430Y-6461932D01*
X2142428Y-6461930D01*
X2142423Y-6461926D01*
X1975806Y-6340873D01*
X1975805Y-6340872D01*
X1975803Y-6340871D01*
X1913508Y-6309130D01*
X1792294Y-6247367D01*
X1596408Y-6183719D01*
X1420794Y-6155905D01*
X1392981Y-6151500D01*
X1187019Y-6151500D01*
X1162550Y-6155375D01*
X983591Y-6183719D01*
X787705Y-6247367D01*
X604193Y-6340873D01*
X437576Y-6461926D01*
X437571Y-6461930D01*
X312181Y-6587321D01*
X250858Y-6620806D01*
X181166Y-6615822D01*
X125233Y-6573950D01*
X100816Y-6508486D01*
X100500Y-6499640D01*
X100500Y-5266965D01*
X120185Y-5199926D01*
X172989Y-5154171D01*
X242147Y-5144227D01*
X267834Y-5150783D01*
X382623Y-5193597D01*
X382627Y-5193598D01*
X442155Y-5199999D01*
X442172Y-5200000D01*
X990000Y-5200000D01*
X990000Y-4265686D01*
X994394Y-4270080D01*
X1085606Y-4322741D01*
X1187339Y-4350000D01*
X1292661Y-4350000D01*
X1394394Y-4322741D01*
X1485606Y-4270080D01*
X1490000Y-4265686D01*
X1490000Y-5200000D01*
X2037828Y-5200000D01*
X2037844Y-5199999D01*
X2097372Y-5193598D01*
X2097379Y-5193596D01*
X2232086Y-5143354D01*
X2232093Y-5143350D01*
X2347187Y-5057190D01*
X2347190Y-5057187D01*
X2433350Y-4942093D01*
X2433354Y-4942086D01*
X2483596Y-4807379D01*
X2483598Y-4807372D01*
X2489999Y-4747844D01*
X2490000Y-4747827D01*
X2490000Y-4697189D01*
X2509685Y-4630150D01*
X2562489Y-4584395D01*
X2631647Y-4574451D01*
X2695203Y-4603476D01*
X2714317Y-4624302D01*
X2820070Y-4769858D01*
X2960142Y-4909930D01*
X3120402Y-5026366D01*
X3203790Y-5068854D01*
X3296898Y-5116296D01*
X3296900Y-5116296D01*
X3296903Y-5116298D01*
X3383684Y-5144495D01*
X3485299Y-5177512D01*
X3680949Y-5208500D01*
X3680954Y-5208500D01*
X3879051Y-5208500D01*
X4074700Y-5177512D01*
X4263097Y-5116298D01*
X4439598Y-5026366D01*
X4599858Y-4909930D01*
X4739930Y-4769858D01*
X4856366Y-4609598D01*
X4939515Y-4446408D01*
X4987490Y-4395613D01*
X5055311Y-4378818D01*
X5121446Y-4401355D01*
X5160484Y-4446408D01*
X5243634Y-4609598D01*
X5360070Y-4769858D01*
X5500142Y-4909930D01*
X5660402Y-5026366D01*
X5743790Y-5068854D01*
X5836898Y-5116296D01*
X5836900Y-5116296D01*
X5836903Y-5116298D01*
X5923684Y-5144495D01*
X6025299Y-5177512D01*
X6220949Y-5208500D01*
X6220954Y-5208500D01*
X6419051Y-5208500D01*
X6614700Y-5177512D01*
X6803097Y-5116298D01*
X6979598Y-5026366D01*
X7139858Y-4909930D01*
X7279930Y-4769858D01*
X7396366Y-4609598D01*
X7486298Y-4433097D01*
X7547512Y-4244700D01*
X7571308Y-4094457D01*
X7578500Y-4049051D01*
X7578500Y-3850948D01*
X7547512Y-3655299D01*
X7503934Y-3521181D01*
X7486298Y-3466903D01*
X7486296Y-3466900D01*
X7486296Y-3466898D01*
X7416805Y-3330516D01*
X7396366Y-3290402D01*
X7279930Y-3130142D01*
X7139858Y-2990070D01*
X6979598Y-2873634D01*
X6953458Y-2860315D01*
X6803101Y-2783703D01*
X6614700Y-2722487D01*
X6419051Y-2691500D01*
X6419046Y-2691500D01*
X6220954Y-2691500D01*
X6220949Y-2691500D01*
X6025299Y-2722487D01*
X5836898Y-2783703D01*
X5660401Y-2873634D01*
X5582718Y-2930075D01*
X5500142Y-2990070D01*
X5500140Y-2990072D01*
X5500139Y-2990072D01*
X5360072Y-3130139D01*
X5360072Y-3130140D01*
X5360070Y-3130142D01*
X5335054Y-3164574D01*
X5243634Y-3290401D01*
X5160485Y-3453590D01*
X5112510Y-3504386D01*
X5044689Y-3521181D01*
X4978554Y-3498643D01*
X4939515Y-3453590D01*
X4876805Y-3330516D01*
X4856366Y-3290402D01*
X4739930Y-3130142D01*
X4599858Y-2990070D01*
X4439598Y-2873634D01*
X4413458Y-2860315D01*
X4263101Y-2783703D01*
X4074700Y-2722487D01*
X3879051Y-2691500D01*
X3879046Y-2691500D01*
X3680954Y-2691500D01*
X3680949Y-2691500D01*
X3485299Y-2722487D01*
X3296898Y-2783703D01*
X3120401Y-2873634D01*
X3042718Y-2930075D01*
X2960142Y-2990070D01*
X2960140Y-2990072D01*
X2960139Y-2990072D01*
X2820071Y-3130140D01*
X2714318Y-3275696D01*
X2658987Y-3318361D01*
X2589374Y-3324340D01*
X2527579Y-3291734D01*
X2493222Y-3230895D01*
X2490000Y-3202810D01*
X2490000Y-3152172D01*
X2489999Y-3152155D01*
X2483598Y-3092627D01*
X2483596Y-3092620D01*
X2433354Y-2957913D01*
X2433350Y-2957906D01*
X2347190Y-2842812D01*
X2347187Y-2842809D01*
X2232093Y-2756649D01*
X2232086Y-2756645D01*
X2097379Y-2706403D01*
X2097372Y-2706401D01*
X2037844Y-2700000D01*
X1490000Y-2700000D01*
X1490000Y-3634314D01*
X1485606Y-3629920D01*
X1394394Y-3577259D01*
X1292661Y-3550000D01*
X1187339Y-3550000D01*
X1085606Y-3577259D01*
X994394Y-3629920D01*
X990000Y-3634314D01*
X990000Y-2700000D01*
X442155Y-2700000D01*
X382627Y-2706401D01*
X382620Y-2706403D01*
X267833Y-2749216D01*
X198141Y-2754200D01*
X136818Y-2720715D01*
X103334Y-2659392D01*
X100500Y-2633034D01*
X100500Y-224500D01*
X120185Y-157461D01*
X172989Y-111706D01*
X224500Y-100500D01*
X25775500Y-100500D01*
X25842539Y-120185D01*
G37*
%TD.AperFunction*%
%TD*%
M02*
